<?xml version="1.0"?>
<svg width="55" height="55" xmlns="http://www.w3.org/2000/svg" xmlns:svg="http://www.w3.org/2000/svg" enable-background="new 0 0 55 55" version="1.1" xml:space="preserve">

 <style id="style1" type="text/css">.st0{fill:#71b1c1;}</style>
 <g class="layer">
  <title>Layer 1</title>
  <path class="st0" d="m27.48,25.1c-2.18,-4.22 -8.08,-12.09 -13.57,-15.97c-5.26,-3.71 -7.28,-3.07 -8.58,-2.48c-1.52,0.69 -1.8,3.03 -1.8,4.41c0,1.37 0.75,11.29 1.25,12.93c1.63,5.47 7.41,7.32 12.74,6.72c0.27,-0.04 0.54,-0.08 0.83,-0.11c-0.27,0.04 -0.56,0.08 -0.83,0.11c-7.81,1.16 -14.75,4 -5.64,14.13c10.01,10.36 13.72,-2.22 15.63,-8.61c1.9,6.38 4.09,18.51 15.43,8.61c8.53,-8.61 2.34,-12.97 -5.47,-14.13c-0.27,-0.03 -0.56,-0.07 -0.83,-0.11c0.29,0.04 0.56,0.07 0.83,0.11c5.33,0.6 11.12,-1.25 12.74,-6.72c0.49,-1.66 1.25,-11.56 1.25,-12.93c0,-1.37 -0.27,-3.71 -1.8,-4.41c-1.32,-0.6 -3.32,-1.24 -8.58,2.48c-5.53,3.89 -11.44,11.75 -13.61,15.97z" fill="#71b1c1" id="path1"/>
 </g>
</svg>